<svg xmlns="http://www.w3.org/2000/svg" viewBox="0 0 24 24" fill="currentColor">
  <path d="M20.447 20.452h-3.554v-5.569c0-1.328-.475-2.236-1.986-2.236-1.081 0-1.722.722-2.002 1.436-.103.25-.129.599-.129.948v5.421h-3.554s.05-8.733 0-9.633h3.554v1.363c-.009.015-.022.03-.033.044h.033v-.044c.537-.827 1.5-2.006 3.649-2.006 2.667 0 4.671 1.743 4.671 5.491v5.785zM5.337 8.855c-1.144 0-1.915-.758-1.915-1.71 0-.956.77-1.71 1.958-1.71 1.187 0 1.927.754 1.958 1.71 0 .952-.771 1.71-1.958 1.71zm1.581 11.597H3.715V9.819h3.203v10.633zM22.225 0H1.771C.792 0 0 .774 0 1.729v20.542C0 23.227.792 24 1.771 24h20.451C23.2 24 24 23.227 24 22.271V1.729C24 .774 23.2 0 22.225 0z"/>
</svg>